<svg xmlns="http://www.w3.org/2000/svg" xmlns:xlink="http://www.w3.org/1999/xlink" width="1600" height="1200" version="1.1" viewBox="0 0 1600 1200"><title>Kander</title><desc>Created with Sketch.</desc><g id="Patterns" fill="none" fill-rule="evenodd" stroke="none" stroke-width="1"><g id="Kander"><g id="Module"><g fill="#FF6242" transform="translate(0.000000, -1.000000) translate(0.000000, 201.000000)"><rect id="Shape" width="200" height="200" x="0" y="0"/></g><g transform="translate(0.000000, -1.000000) translate(1400.000000, 801.000000)"><rect id="Shape" width="200" height="200" x="0" y="0" fill="#E4E7EB"/><polygon id="Shape" fill="#FFDC09" points="0 0 200 200 0 200"/></g><g transform="translate(0.000000, -1.000000) translate(200.000000, 801.000000)"><path id="Shape" fill="#FFDC09" d="M299,26 C340.421356,26 374,59.5786438 374,101 C374,142.421356 340.421356,176 299,176 C257.578644,176 224,142.421356 224,101 C224,59.5786438 257.578644,26 299,26 Z"/><polygon id="Shape" fill="#FFF" points="0 0 199.377 0 400 200 0 200"/><polygon id="Shape" fill="#00C9F2" points="0 0 200 200 0 200" transform="translate(100.000000, 100.000000) scale(-1, 1) translate(-100.000000, -100.000000)"/><path id="Shape" fill="#26468B" d="M99,56 L100,56 C124.852814,56 145,76.1471863 145,101 C145,125.852814 124.852814,146 100,146 L99,146 C74.1471863,146 54,125.852814 54,101 C54,76.1471863 74.1471863,56 99,56 Z"/></g><g transform="translate(0.000000, -1.000000) translate(1000.000000, 1.000000)"><path id="Shape" fill="#E4E7EB" d="M299,26 C340.421356,26 374,59.5786438 374,101 C374,142.421356 340.421356,176 299,176 C257.578644,176 224,142.421356 224,101 C224,59.5786438 257.578644,26 299,26 Z"/><polygon id="Shape" fill="#00C9F2" points="0 0 199.377 0 400 200 0 200"/><polygon id="Shape" fill="#FFF" points="0 0 200 200 0 200" transform="translate(100.000000, 100.000000) scale(-1, 1) translate(-100.000000, -100.000000)"/><path id="Shape" fill="#26468B" d="M99,56 L100,56 C124.852814,56 145,76.1471863 145,101 C145,125.852814 124.852814,146 100,146 L99,146 C74.1471863,146 54,125.852814 54,101 C54,76.1471863 74.1471863,56 99,56 Z"/></g><g transform="translate(0.000000, -1.000000) translate(600.000000, 801.000000)"><rect id="Shape" width="200" height="400" x="0" y="0" fill="#00C9F2"/><rect id="Shape" width="100" height="100.251" x="100" y="100" fill="#3C61AF"/><rect id="Shape" width="100" height="100.251" x="0" y="200" fill="#26468B"/></g><g transform="translate(0.000000, -1.000000) translate(1500.000000, 301.000000) rotate(-270.000000) translate(-1500.000000, -301.000000) translate(1400.000000, 201.000000)"><polygon id="Shape" fill="#3C61AF" points="0 0 200 0 200 200 0 200"/><rect id="Shape" width="100" height="100" x="100" y="100" fill="#FF6242"/></g><g transform="translate(0.000000, -1.000000) translate(0.000000, 801.000000)"><rect id="Shape" width="200" height="200" x="0" y="0" fill="#FFF"/><polygon id="Shape" fill="#FFDC09" points="100 33 143.067 48.675 165.982 88.366 158.024 133.5 122.915 162.959 77.085 162.959 41.976 133.5 34.018 88.366 56.933 48.675"/></g><g transform="translate(0.000000, -1.000000) translate(1400.000000, 1001.000000)"><rect id="Shape" width="200" height="200" x="0" y="0" fill="#26468B"/><polygon id="Shape" fill="#00C9F2" points="100 33 143.067 48.675 165.982 88.366 158.024 133.5 122.915 162.959 77.085 162.959 41.976 133.5 34.018 88.366 56.933 48.675"/></g><g transform="translate(0.000000, -1.000000) translate(800.000000, 1.000000)"><rect id="Shape" width="200" height="200" x="0" y="0" fill="#FFF"/><polygon id="Shape" fill="#26468B" points="100 33 143.067 48.675 165.982 88.366 158.024 133.5 122.915 162.959 77.085 162.959 41.976 133.5 34.018 88.366 56.933 48.675"/></g><g transform="translate(0.000000, -1.000000) translate(900.000000, 901.000000) rotate(-90.000000) translate(-900.000000, -901.000000) translate(800.000000, 801.000000)"><rect id="Shape" width="200" height="200" x="0" y="0" fill="#3C61AF"/><rect id="Shape" width="100" height="200" x="0" y="0" fill="#FF6242"/></g><g fill="#FFDC09" transform="translate(0.000000, -1.000000) translate(600.000000, 1.000000)"><rect id="Shape" width="200" height="200" x="0" y="0"/></g><g transform="translate(0.000000, -1.000000) translate(1000.000000, 801.000000)"><rect id="Shape" width="200" height="200" x="0" y="0" fill="#FFDC09"/><polygon id="Shape" fill="#E4E7EB" points="0 0 200 200 0 200" transform="translate(100.000000, 100.000000) scale(-1, 1) translate(-100.000000, -100.000000)"/></g><g transform="translate(0.000000, -1.000000) translate(400.000000, 401.000000)"><rect id="Shape" width="200" height="200" x="0" y="0" fill="#3C61AF"/><rect id="Shape" width="101" height="200" x="0" y="0" fill="#FF6242"/></g><g fill="#FFDC09" transform="translate(0.000000, -1.000000) translate(400.000000, 1001.000000)"><rect id="Shape" width="200" height="200" x="0" y="0"/></g><g transform="translate(0.000000, -1.000000) translate(1000.000000, 401.000000)"><rect id="Shape" width="200" height="200" x="0" y="0" fill="#FFF"/><path id="Shape" fill="#FF6242" d="M50,100 C77.6142375,100 100,122.385763 100,150 C100,177.614237 77.6142375,200 50,200 C22.3857625,200 0,177.614237 0,150 C0,122.385763 22.3857625,100 50,100 Z"/><rect id="Shape" width="100" height="100" x="100" y="0" fill="#00C9F2"/></g><g transform="translate(0.000000, -1.000000) translate(800.000000, 601.000000)"><rect id="Shape" width="200" height="200" x="0" y="0" fill="#FFF"/><path id="Shape" fill="#E4E7EB" d="M100,55 C124.852814,55 145,75.1471863 145,100 C145,124.852814 124.852814,145 100,145 C75.1471863,145 55,124.852814 55,100 C55,75.1471863 75.1471863,55 100,55 Z"/></g><g transform="translate(0.000000, -1.000000) translate(1000.000000, 601.000000)"><rect id="Shape" width="200" height="200" x="0" y="0" fill="#00C9F2"/><rect id="Shape" width="140" height="140" x="30" y="30" fill="#FFF"/><polygon id="Shape" fill="#26468B" points="0 0 100 100 0 100" transform="translate(50.000000, 50.000000) scale(-1, -1) translate(-50.000000, -50.000000)"/></g><g transform="translate(0.000000, -1.000000) translate(100.000000, 501.000000) rotate(-90.000000) translate(-100.000000, -501.000000) translate(0.000000, 401.000000)"><rect id="Shape" width="200" height="200" x="0" y="0" fill="#00C9F2"/><rect id="Shape" width="140" height="140" x="30" y="30" fill="#FFF"/><polygon id="Shape" fill="#26468B" points="0 0 100 100 0 100" transform="translate(50.000000, 50.000000) scale(-1, -1) translate(-50.000000, -50.000000)"/></g><g transform="translate(0.000000, -1.000000) translate(500.000000, 101.000000) rotate(-270.000000) translate(-500.000000, -101.000000) translate(400.000000, 1.000000)"><rect id="Shape" width="200" height="200" x="0" y="0" fill="#00C9F2"/><rect id="Shape" width="140" height="140" x="30" y="30" fill="#FFF"/><polygon id="Shape" fill="#26468B" points="0 0 100 100 0 100" transform="translate(50.000000, 50.000000) scale(-1, -1) translate(-50.000000, -50.000000)"/></g><g transform="translate(0.000000, -1.000000) translate(1300.000000, 701.000000) rotate(-270.000000) translate(-1300.000000, -701.000000) translate(1200.000000, 601.000000)"><polygon id="Shape" fill="#3C61AF" points="0 0 200 0 200 200 0 200"/><polygon id="Shape" fill="#FF6242" points="0 0 200 200 0 200" transform="translate(100.000000, 100.000000) scale(-1, -1) translate(-100.000000, -100.000000)"/><path id="Shape" fill="#FFF" d="M102,25 C143.421356,25 177,58.5786438 177,100 C177,141.421356 143.421356,175 102,175 C60.5786438,175 27,141.421356 27,100 C27,58.5786438 60.5786438,25 102,25 Z"/></g><g transform="translate(0.000000, -1.000000) translate(0.000000, 601.000000)"><polygon id="Shape" fill="#FFF" points="0 0 200 0 200 200 0 200"/><polygon id="Shape" fill="#E4E7EB" points="0 0 200 200 0 200" transform="translate(100.000000, 100.000000) scale(-1, 1) translate(-100.000000, -100.000000)"/></g><g transform="translate(0.000000, -1.000000) translate(200.000000, 401.000000)"><polygon id="Shape" fill="#26468B" points="0 0 200 200 0 200"/><rect id="Shape" width="100" height="100" x="100" y="0" fill="#00C9F2"/></g><g fill="#26468B" transform="translate(0.000000, -1.000000) translate(400.000000, 201.000000)"><polygon id="Shape" points="0 0 200 200 0 200"/></g><g fill="#FF6242" transform="translate(0.000000, -1.000000) translate(200.000000, 601.000000)"><polygon id="Shape" points="0 0 200 200 0 200"/></g><g transform="translate(0.000000, -1.000000) translate(800.000000, 401.000000)"><polygon id="Shape" fill="#FFDC09" points="0 0 200 200 0 200" transform="translate(100.000000, 100.000000) scale(-1, -1) translate(-100.000000, -100.000000)"/><rect id="Shape" width="100" height="100" x="0" y="100" fill="#00C9F2"/><polygon id="Shape" fill="#E4E7EB" points="100 0 200 100 100 100" transform="translate(150.000000, 50.000000) scale(-1, -1) translate(-150.000000, -50.000000)"/></g><g transform="translate(0.000000, -1.000000) translate(300.000000, 101.000000) rotate(-90.000000) translate(-300.000000, -101.000000) translate(200.000000, 1.000000)"><polygon id="Shape" fill="#FFDC09" points="0 0 200 200 0 200" transform="translate(100.000000, 100.000000) scale(-1, -1) translate(-100.000000, -100.000000)"/><rect id="Shape" width="100" height="100" x="0" y="100" fill="#E4E7EB"/><polygon id="Shape" fill="#E4E7EB" points="100 0 200 100 100 100" transform="translate(150.000000, 50.000000) scale(-1, -1) translate(-150.000000, -50.000000)"/></g><g transform="translate(0.000000, -1.000000) translate(1500.000000, 701.000000) rotate(-90.000000) translate(-1500.000000, -701.000000) translate(1400.000000, 601.000000)"><polygon id="Shape" fill="#FFDC09" points="0 0 200 200 0 200" transform="translate(100.000000, 100.000000) scale(-1, -1) translate(-100.000000, -100.000000)"/><rect id="Shape" width="100" height="100" x="0" y="100" fill="#00C9F2"/><polygon id="Shape" fill="#E4E7EB" points="100 0 200 100 100 100" transform="translate(150.000000, 50.000000) scale(-1, -1) translate(-150.000000, -50.000000)"/></g><g transform="translate(0.000000, -1.000000) translate(600.000000, 401.000000)"><polygon id="Shape" fill="#E4E7EB" points="0 0 200 200 0 200" transform="translate(100.000000, 100.000000) scale(-1, 1) translate(-100.000000, -100.000000)"/><rect id="Shape" width="100" height="100" x="0" y="0" fill="#FFDC09"/></g><g transform="translate(0.000000, -1.000000) translate(1200.000000, 1001.000000)"><polygon id="Shape" fill="#FFDC09" points="0 0 200 200 0 200" transform="translate(100.000000, 100.000000) scale(-1, 1) translate(-100.000000, -100.000000)"/><rect id="Shape" width="100" height="100" x="0" y="0" fill="#26468B"/></g><g fill="#3C61AF" transform="translate(0.000000, -1.000000) translate(1200.000000, 801.000000)"><polygon id="Shape" points="0 0 200 200 0 200" transform="translate(100.000000, 100.000000) scale(-1, -1) translate(-100.000000, -100.000000)"/></g><g fill="#3C61AF" transform="translate(0.000000, -1.000000) translate(0.000000, 1.000000)"><polygon id="Shape" points="0 0 200 200 0 200" transform="translate(100.000000, 100.000000) scale(-1, -1) translate(-100.000000, -100.000000)"/></g><g transform="translate(0.000000, -1.000000) translate(700.000000, 701.000000) rotate(-180.000000) translate(-700.000000, -701.000000) translate(600.000000, 601.000000)"><rect id="Shape" width="200" height="200" x="0" y="0" fill="#3C61AF"/><g id="Shape" transform="translate(0.000000, 64.000000)"><polygon id="Triangle" fill="#FFF" points="99.5 .673 168 136 31 136"/><polygon id="Triangle" fill="#FF6242" points="50 46.446 100 136 0 136"/><polygon id="Triangle" fill="#FF6242" points="150 46.446 200 136 100 136"/></g></g><g transform="translate(0.000000, -1.000000) translate(100.000000, 1101.000000) rotate(-270.000000) translate(-100.000000, -1101.000000) translate(0.000000, 1001.000000)"><rect id="Shape" width="200" height="200" x="0" y="0" fill="#26468B"/><polygon id="Shape" fill="#00C9F2" points="99.5 65 168 200 31 200"/><polygon id="Triangle" fill="#E4E7EB" points="50 110 100 200 0 200"/><polygon id="Triangle" fill="#E4E7EB" points="149 110 199 200 99 200"/></g><g transform="translate(0.000000, -1.000000) translate(1500.500000, 101.000000) rotate(-90.000000) translate(-1500.500000, -101.000000) translate(1399.500000, 0.500000)"><rect id="Shape" width="200" height="200.005" x="1" y="0" fill="#26468B"/><polygon id="Shape" fill="#00C9F2" points="100.998 64.498 169.498 200.502 32.498 200.502"/><g id="Shape" fill="#E4E7EB" transform="translate(0.726368, 109.726368)"><polygon id="Triangle" points="50.274 .274 100.274 90.276 .274 90.276"/><polygon id="Triangle" points="150.274 .274 200.274 90.276 100.274 90.276"/></g></g><g transform="translate(0.000000, -1.000000) translate(300.000000, 301.000000) rotate(-180.000000) translate(-300.000000, -301.000000) translate(200.000000, 201.000000)"><rect id="Shape" width="200" height="200" x="0" y="0" fill="#E4E7EB"/><polygon id="Shape" fill="#FFDC09" points="99.5 63.317 168 200 31 200"/></g><g fill="#FFDC09" transform="translate(0.000000, -1.000000) translate(800.000000, 1001.000000)"><polygon id="Shape" points="100 0 200 200 0 200"/></g><g transform="translate(0.000000, -1.000000) translate(1200.000000, 401.000000)"><path id="Shape" fill="#E4E7EB" d="M100,0 C155.228475,0 200,44.771525 200,100 C200,155.228475 155.228475,200 100,200 C44.771525,200 0,155.228475 0,100 C0,44.771525 44.771525,0 100,0 Z"/><path id="Shape" fill="#FFF" d="M100,50 C127.614237,50 150,72.3857625 150,100 C150,127.614237 127.614237,150 100,150 C72.3857625,150 50,127.614237 50,100 C50,72.3857625 72.3857625,50 100,50 Z"/></g><g transform="translate(0.000000, -1.000000) translate(600.000000, 201.000000)"><path id="Shape" fill="#FF6242" d="M100,0 C155.228475,0 200,44.771525 200,100 C200,155.228475 155.228475,200 100,200 C44.771525,200 0,155.228475 0,100 C0,44.771525 44.771525,0 100,0 Z"/><path id="Shape" fill="#3C61AF" d="M100,50 C127.614237,50 150,72.3857625 150,100 C150,127.614237 127.614237,150 100,150 C72.3857625,150 50,127.614237 50,100 C50,72.3857625 72.3857625,50 100,50 Z"/></g><g fill="#00C9F2" transform="translate(0.000000, -1.000000) translate(1000.000000, 1001.000000)"><path id="Shape" d="M100,-1.8189894e-12 C155.228475,-1.8189894e-12 200,44.771525 200,100 C200,155.228475 155.228475,200 100,200 C44.771525,200 0,155.228475 0,100 C0,44.771525 44.771525,-1.8189894e-12 100,-1.8189894e-12 Z"/></g><g transform="translate(0.000000, -1.000000) translate(1000.000000, 201.000000)"><path id="Shape" fill="#FFDC09" d="M100,0 C155.228475,0 200,44.771525 200,100 C200,155.228475 155.228475,200 100,200 C44.771525,200 0,155.228475 0,100 C0,44.771525 44.771525,0 100,0 Z"/><rect id="Shape" width="100" height="100" x="100" y="100" fill="#FFF"/></g><g transform="translate(0.000000, -1.000000) translate(200.000000, 1001.000000)"><path id="Shape" fill="#E4E7EB" d="M100,0 C155.228475,0 200,44.771525 200,100 C200,155.228475 155.228475,200 100,200 C44.771525,200 0,155.228475 0,100 C0,44.771525 44.771525,0 100,0 Z"/><rect id="Shape" width="100" height="100" x="100" y="100" fill="#3C61AF"/></g><g fill="#FF6242" transform="translate(0.000000, -1.000000) translate(800.000000, 201.000000)"><polygon id="Shape" points="0 0 100 100 0 100" transform="translate(50.000000, 50.000000) scale(-1, -1) translate(-50.000000, -50.000000)"/><polygon id="Shape" points="100 100 200 200 100 200" transform="translate(150.000000, 150.000000) scale(-1, -1) rotate(-180.000000) translate(-150.000000, -150.000000)"/><polygon id="Shape" points="0 100 100 200 0 200" transform="translate(50.000000, 150.000000) scale(-1, -1) rotate(-90.000000) translate(-50.000000, -150.000000)"/><polygon id="Shape" points="100 0 200 100 100 100" transform="translate(150.000000, 50.000000) scale(-1, -1) rotate(-270.000000) translate(-150.000000, -50.000000)"/></g><g fill="#00C9F2" transform="translate(0.000000, -1.000000) translate(1400.000000, 401.000000)"><polygon id="Shape" points="0 0 100 100 0 100" transform="translate(50.000000, 50.000000) scale(-1, -1) translate(-50.000000, -50.000000)"/><polygon id="Shape" points="100 100 200 200 100 200" transform="translate(150.000000, 150.000000) scale(-1, -1) rotate(-180.000000) translate(-150.000000, -150.000000)"/><polygon id="Shape" points="0 100 100 200 0 200" transform="translate(50.000000, 150.000000) scale(-1, -1) rotate(-90.000000) translate(-50.000000, -150.000000)"/><polygon id="Shape" points="100 0 200 100 100 100" transform="translate(150.000000, 50.000000) scale(-1, -1) rotate(-270.000000) translate(-150.000000, -50.000000)"/></g><g fill="#FFDC09" transform="translate(0.000000, -1.000000) translate(400.000000, 601.000000)"><polygon id="Shape" points="0 0 100 100 0 100" transform="translate(50.000000, 50.000000) scale(-1, -1) translate(-50.000000, -50.000000)"/><polygon id="Shape" points="0 0 100 100 0 100" transform="translate(50.000000, 50.000000) scale(-1, -1) rotate(-90.000000) translate(-50.000000, -50.000000)"/><polygon id="Shape" points="100 100 200 200 100 200" transform="translate(150.000000, 150.000000) scale(-1, -1) rotate(-90.000000) translate(-150.000000, -150.000000)"/><polygon id="Shape" points="100 100 200 200 100 200" transform="translate(150.000000, 150.000000) scale(-1, -1) translate(-150.000000, -150.000000)"/></g><g transform="translate(0.000000, -1.000000) translate(1200.000000, 201.000000)"><polygon id="Shape" fill="#FFDC09" points="0 0 100 100 0 100" transform="translate(50.000000, 50.000000) scale(-1, -1) translate(-50.000000, -50.000000)"/><polygon id="Shape" fill="#FFDC09" points="0 0 100 100 0 100" transform="translate(50.000000, 50.000000) scale(-1, -1) rotate(-90.000000) translate(-50.000000, -50.000000)"/><polygon id="Shape" fill="#00C9F2" points="100 100 200 200 100 200" transform="translate(150.000000, 150.000000) scale(-1, -1) rotate(-90.000000) translate(-150.000000, -150.000000)"/><polygon id="Shape" fill="#00C9F2" points="100 100 200 200 100 200" transform="translate(150.000000, 150.000000) scale(-1, -1) translate(-150.000000, -150.000000)"/></g></g></g></g></svg>