<svg xmlns="http://www.w3.org/2000/svg" xmlns:xlink="http://www.w3.org/1999/xlink" width="1600" height="1200" version="1.1" viewBox="0 0 1600 1200"><title>Ngaruroro</title><desc>Created with Sketch.</desc><defs><rect id="path-1" width="1600" height="1200" x="0" y="0"/></defs><g id="Patterns" fill="none" fill-rule="evenodd" stroke="none" stroke-width="1"><g id="Ngaruroro"><g><mask id="mask-2" fill="#fff"><use xlink:href="#path-1"/></mask><use id="Background" fill="#5359A6" xlink:href="#path-1"/><g id="Opacity-70" fill="#37ABB7" fill-rule="nonzero" mask="url(#mask-2)" opacity=".7"><g id="Shape" transform="translate(0.000000, -40.000000)"><rect width="160" height="160" x="0" y="0"/><rect width="160" height="160" x="800" y="0"/><rect width="160" height="160" x="320" y="160"/><rect width="160" height="160" x="960" y="320"/><rect width="160" height="160" x="1440" y="480"/><rect width="160" height="160" x="0" y="640"/><rect width="160" height="160" x="640" y="800"/><rect width="160" height="160" x="640" y="960"/><rect width="160" height="160" x="160" y="1120"/><rect width="160" height="160" x="1440" y="1120"/></g></g><g id="Opacity-60" fill="#37ABB7" fill-rule="nonzero" mask="url(#mask-2)" opacity=".6"><g id="Shape" transform="translate(0.000000, -40.000000)"><rect width="160" height="160" x="960" y="0"/><rect width="160" height="160" x="1440" y="0"/><rect width="160" height="160" x="0" y="160"/><rect width="160" height="160" x="0" y="480"/><rect width="160" height="160" x="1280" y="800"/><rect width="160" height="160" x="0" y="960"/><rect width="160" height="160" x="1280" y="960"/><rect width="160" height="160" x="800" y="1120"/><rect width="160" height="160" x="480" y="480"/></g></g><g id="Opacity-50" fill="#37ABB7" fill-rule="nonzero" mask="url(#mask-2)" opacity=".5"><g id="Shape" transform="translate(0.000000, 120.000000)"><rect width="160" height="160" x="160" y="0"/><rect width="160" height="160" x="0" y="160"/><rect width="160" height="160" x="800" y="160"/><rect width="160" height="160" x="1440" y="160"/><rect width="160" height="160" x="1280" y="320"/><rect width="160" height="160" x="480" y="480"/><rect width="160" height="160" x="640" y="480"/><rect width="160" height="160" x="320" y="640"/><rect width="160" height="160" x="480" y="640"/><rect width="160" height="160" x="1440" y="800"/><rect width="160" height="160" x="480" y="960"/><rect width="160" height="160" x="1120" y="960"/></g></g><g id="Opacity-40" fill="#37ABB7" fill-rule="nonzero" mask="url(#mask-2)" opacity=".4"><g id="Shape" transform="translate(160.000000, -40.000000)"><rect width="160" height="160" x="480" y="0"/><rect width="160" height="160" x="960" y="0"/><rect width="160" height="160" x="320" y="320"/><rect width="160" height="160" x="0" y="480"/><rect width="160" height="160" x="960" y="480"/><rect width="160" height="160" x="640" y="640"/><rect width="160" height="160" x="800" y="640"/><rect width="160" height="160" x="1280" y="800"/><rect width="160" height="160" x="0" y="960"/><rect width="160" height="160" x="640" y="960"/></g></g><g id="Opacity-30" fill="#37ABB7" fill-rule="nonzero" mask="url(#mask-2)" opacity=".3"><g id="Shape" transform="translate(160.000000, -40.000000)"><rect width="160" height="160" x="1120" y="0"/><rect width="160" height="160" x="480" y="160"/><rect width="160" height="160" x="800" y="160"/><rect width="160" height="160" x="960" y="320"/><rect width="160" height="160" x="160" y="480"/><rect width="160" height="160" x="480" y="480"/><rect width="160" height="160" x="160" y="640"/><rect width="160" height="160" x="960" y="640"/><rect width="160" height="160" x="0" y="800"/></g></g><g id="Opacity-20" opacity=".2" style="mix-blend-mode:multiply" fill="#37ABB7" fill-rule="nonzero" mask="url(#mask-2)"><g id="Shape" transform="translate(160.000000, -40.000000)"><rect width="160" height="160" x="160" y="0"/><rect width="160" height="160" x="320" y="160"/><rect width="160" height="160" x="1120" y="160"/><rect width="160" height="160" x="160" y="320"/><rect width="160" height="160" x="480" y="320"/><rect width="160" height="160" x="800" y="480"/><rect width="160" height="160" x="0" y="640"/><rect width="160" height="160" x="800" y="960"/></g></g><g id="Color-3" fill-rule="nonzero" mask="url(#mask-2)"><g id="Shape" transform="translate(160.000000, -40.000000)"><rect width="160" height="160" x="0" y="0" fill="#37ABB7"/><rect width="160" height="160" x="320" y="0" fill="#37ABB7"/><rect width="160" height="160" x="640" y="160" fill="#F05D42"/><rect width="160" height="160" x="1120" y="320" fill="#F05D42"/><rect width="160" height="160" x="640" y="480" fill="#37ABB7"/><rect width="160" height="160" x="1120" y="640" fill="#37ABB7"/><rect width="160" height="160" x="640" y="800" fill="#37ABB7"/><rect width="160" height="160" x="320" y="960" fill="#37ABB7"/></g></g><g id="Color-2" fill-rule="nonzero" mask="url(#mask-2)"><g id="Shape" transform="translate(0.000000, 920.000000)"><rect width="160" height="160" x="320" y="0" fill="#F05D42"/><rect width="160" height="160" x="1120" y="0" fill="#37ABB7"/><rect width="160" height="160" x="0" y="160" fill="#37ABB7"/><rect width="160" height="160" x="320" y="160" fill="#37ABB7"/><rect width="160" height="160" x="640" y="160" fill="#37ABB7"/></g></g><g id="Color-1" fill="#C4DD76" fill-rule="nonzero" mask="url(#mask-2)"><g id="Shape" transform="translate(0.000000, 120.000000)"><rect width="160" height="160" x="1120" y="0"/><rect width="160" height="160" x="1440" y="0"/><rect width="160" height="160" x="160" y="160"/><rect width="160" height="160" x="1440" y="480"/><rect width="160" height="160" x="0" y="640"/><rect width="160" height="160" x="960" y="640"/><rect width="160" height="160" x="1120" y="640"/><rect width="160" height="160" x="960" y="960"/><rect width="160" height="160" x="1280" y="960"/></g></g></g></g></g></svg>