<svg xmlns="http://www.w3.org/2000/svg" xmlns:xlink="http://www.w3.org/1999/xlink" width="1599" height="1200" version="1.1" viewBox="0 0 1599 1200"><title>Reuss</title><desc>Created with Sketch.</desc><defs><rect id="path-1" width="200" height="100" x="0" y="99.739"/><rect id="path-3" width="200" height="100" x="0" y="100"/><rect id="path-5" width="200" height="100" x="0" y="100"/><rect id="path-7" width="200" height="200" x="0" y="0"/><rect id="path-9" width="200" height="200" x="0" y="0"/><rect id="path-11" width="200" height="200" x="0" y="0"/><rect id="path-13" width="200" height="200" x="0" y="0"/><rect id="path-15" width="200" height="100" x="0" y="99.739"/></defs><g id="Patterns" fill="none" fill-rule="evenodd" stroke="none" stroke-width="1"><g id="Reuss" transform="translate(-1.000000, 0.000000)"><g id="Module"><g transform="translate(400.000000, 400.000000)"><rect id="Shape" width="200" height="200" x="0" y="0" fill="#8BAFBB" fill-rule="nonzero"/><ellipse id="Shape" cx="100.044" cy="98.018" fill="#5C7985" fill-rule="nonzero" rx="82.044" ry="81.018"/><mask id="mask-2" fill="#fff"><use xlink:href="#path-1"/></mask><use id="Shape" fill="#F5E304" fill-rule="nonzero" xlink:href="#path-1"/><ellipse id="Shape" cx="99.951" cy="99.676" fill="#FFF" fill-rule="nonzero" mask="url(#mask-2)" rx="81.951" ry="80.937"/></g><g transform="translate(700.000000, 900.000000) rotate(-270.000000) translate(-700.000000, -900.000000) translate(600.000000, 800.000000)"><rect id="Shape" width="200" height="200" x="0" y="0" fill="#8BAFBB" fill-rule="nonzero"/><ellipse id="Shape" cx="100.018" cy="99.956" fill="#5C7985" fill-rule="nonzero" rx="82.044" ry="81.018"/><mask id="mask-4" fill="#fff"><use xlink:href="#path-3"/></mask><use id="Shape" fill="#F5E304" fill-rule="nonzero" xlink:href="#path-3"/><ellipse id="Shape" cx="99.937" cy="100.049" fill="#FFF" fill-rule="nonzero" mask="url(#mask-4)" rx="81.951" ry="80.937"/></g><g transform="translate(1100.000000, 700.000000) rotate(-90.000000) translate(-1100.000000, -700.000000) translate(1000.000000, 600.000000)"><rect id="Shape" width="200" height="200" x="0" y="0" fill="#8BAFBB" fill-rule="nonzero"/><ellipse id="Shape" cx="100.044" cy="98.018" fill="#5C7985" fill-rule="nonzero" rx="82.044" ry="81.018"/><mask id="mask-6" fill="#fff"><use xlink:href="#path-5"/></mask><use id="Shape" fill="#F5E304" fill-rule="nonzero" xlink:href="#path-5"/><ellipse id="Shape" cx="99.951" cy="99.676" fill="#FFF" fill-rule="nonzero" mask="url(#mask-6)" rx="81.951" ry="80.937"/></g><g fill-rule="nonzero" transform="translate(500.000000, 700.000000) scale(1, -1) rotate(-180.000000) translate(-500.000000, -700.000000) translate(400.000000, 600.000000)"><rect id="Shape" width="200" height="200" x="0" y="0" fill="#FFF"/><path id="Shape" fill="#5C7985" d="M199.79558,23 L199.79558,23 L199.79558,144.79558 C199.79558,175.171241 175.171241,199.79558 144.79558,199.79558 L23,199.79558 C23,102.154077 102.154077,23 199.79558,23 Z"/><circle id="Shape" cx="166.022" cy="169.254" r="15.746" fill="#FF7E6F"/></g><g fill-rule="nonzero" transform="translate(500.000000, 900.000000) scale(1, -1) translate(-500.000000, -900.000000) translate(400.000000, 800.000000)"><rect id="Shape" width="200" height="200" x="0" y="0" fill="#C0E1DD"/><circle id="Shape" cx="100.276" cy="99.171" r="57.735" fill="#FFF"/><polygon id="Shape" fill="#5C7985" points="101.346 98.781 116.022 98.781 116.022 100.381 101.346 100.381 101.346 114.917 99.495 114.917 99.495 100.381 85.083 100.381 85.083 98.781 99.495 98.781 99.495 83.978 101.346 83.978"/></g><g fill="#5C7985" fill-rule="nonzero" transform="translate(700.000000, 1100.000000) scale(1, -1) translate(-700.000000, -1100.000000) translate(600.000000, 1000.000000)"><rect id="Shape" width="200" height="200" x="0" y="0"/></g><g fill-rule="nonzero" transform="translate(500.000000, 1100.000000) scale(1, -1) translate(-500.000000, -1100.000000) translate(400.000000, 1000.000000)"><rect id="Shape" width="200" height="200" x="0" y="0" fill="#A3CEC1"/><path id="Shape" fill="#FF7E6F" d="M199.447514,0.552486188 L199.447514,0.552486188 C199.447514,110.704306 110.15182,200 1.98951966e-13,200 L0,200 C-1.34897074e-14,89.8481797 89.2956935,0.552486188 199.447514,0.552486188 Z"/></g><g fill-rule="nonzero" transform="translate(300.000000, 1100.000000) scale(1, -1) translate(-300.000000, -1100.000000) translate(200.000000, 1000.000000)"><rect id="Shape" width="200" height="200" x="0" y="0" fill="#A3CEC1"/><path id="Shape" fill="#F5E304" d="M17,0 L183.298343,0 L183.298343,99.7237569 C183.298343,145.645776 146.071191,182.872928 100.149171,182.872928 C54.227152,182.872928 17,145.645776 17,99.7237569 L17,0 Z"/></g><g fill-rule="nonzero" transform="translate(300.000000, 700.000000) scale(1, -1) rotate(-180.000000) translate(-300.000000, -700.000000) translate(200.000000, 600.000000)"><rect id="Shape" width="200" height="200" x="0" y="0" fill="#C0E1DD"/><path id="Shape" fill="#95C3B4" d="M200,0 L200,0 L200,100 C200,155.228475 155.228475,200 100,200 L0,200 C-1.3527075e-14,89.54305 89.54305,2.02906125e-14 200,0 Z" transform="translate(100.000000, 100.000000) scale(1, -1) translate(-100.000000, -100.000000)"/></g><g fill-rule="nonzero" transform="translate(1300.000000, 1100.000000) scale(1, -1) rotate(-180.000000) translate(-1300.000000, -1100.000000) translate(1200.000000, 1000.000000)"><rect id="Shape" width="200" height="200" x="0" y="0" fill="#C0E1DD"/><path id="Shape" fill="#95C3B4" d="M200,0 L200,0 L200,100 C200,155.228475 155.228475,200 100,200 L0,200 C-1.3527075e-14,89.54305 89.54305,2.02906125e-14 200,0 Z" transform="translate(100.000000, 100.000000) scale(1, -1) translate(-100.000000, -100.000000)"/></g><g fill="#F5E304" fill-rule="nonzero" transform="translate(100.000000, 900.000000) scale(1, -1) translate(-100.000000, -900.000000) translate(0.000000, 800.000000)"><rect id="Shape" width="200" height="200" x="0" y="0"/></g><g fill-rule="nonzero" transform="translate(700.000000, 700.000000) scale(1, -1) translate(-700.000000, -700.000000) translate(600.000000, 600.000000)"><rect id="Shape" width="200" height="200" x="0" y="0" fill="#A3CEC1"/><path id="Shape" fill="#C0E1DD" d="M200,-7.10542736e-14 L200,-7.10542736e-14 C200,110.45695 110.45695,200 0,200 L0,200 C-1.3527075e-14,89.54305 89.54305,-5.0763661e-14 200,-7.10542736e-14 Z" transform="translate(100.000000, 100.000000) scale(-1, 1) translate(-100.000000, -100.000000)"/></g><g transform="translate(1100.000000, 900.000000) scale(1, -1) translate(-1100.000000, -900.000000) translate(1000.000000, 800.000000)"><mask id="mask-8" fill="#fff"><use xlink:href="#path-7"/></mask><use id="Shape" fill="#95C3B4" fill-rule="nonzero" xlink:href="#path-7"/><circle id="Shape" cx="199.724" cy="200.276" r="51.105" fill="#5C7985" fill-rule="nonzero" mask="url(#mask-8)"/><circle id="Shape" cx="-.276" cy="-.276" r="51.105" fill="#5C7985" fill-rule="nonzero" mask="url(#mask-8)"/></g><g fill-rule="nonzero" transform="translate(100.000000, 700.000000) scale(1, -1) rotate(-270.000000) translate(-100.000000, -700.000000) translate(0.000000, 600.000000)"><polygon id="Shape" fill="#FFF" points="0 0 200 0 200 200 0 200" transform="translate(100.000000, 100.000000) scale(-1, -1) rotate(-90.000000) translate(-100.000000, -100.000000)"/><path id="Shape" fill="#FF7E6F" d="M55,0 L200,0 C200,110.45695 110.45695,200 0,200 L0,200 L0,55 C1.04909091e-14,24.6243388 24.6243388,5.57991845e-15 55,0 Z" transform="translate(100.000000, 100.000000) scale(-1, -1) rotate(-90.000000) translate(-100.000000, -100.000000)"/></g><g fill-rule="nonzero" transform="translate(1300.000000, 300.000000) scale(-1, 1) rotate(-270.000000) translate(-1300.000000, -300.000000) translate(1200.000000, 200.000000)"><rect id="Shape" width="200" height="200" x="0" y="0" fill="#FFF"/><path id="Shape" fill="#5C7985" d="M199.79558,23 L199.79558,23 L199.79558,144.79558 C199.79558,175.171241 175.171241,199.79558 144.79558,199.79558 L23,199.79558 C23,102.154077 102.154077,23 199.79558,23 Z"/><circle id="Shape" cx="166.022" cy="169.254" r="15.746" fill="#FF7E6F"/></g><g fill-rule="nonzero" transform="translate(1100.000000, 500.000000) scale(-1, 1) rotate(-270.000000) translate(-1100.000000, -500.000000) translate(1000.000000, 400.000000)"><rect id="Shape" width="200" height="200" x="0" y="0" fill="#C0E1DD"/><circle id="Shape" cx="100.276" cy="99.171" r="57.735" fill="#FFF"/><polygon id="Shape" fill="#5C7985" points="101.346 98.781 116.022 98.781 116.022 100.381 101.346 100.381 101.346 114.917 99.495 114.917 99.495 100.381 85.083 100.381 85.083 98.781 99.495 98.781 99.495 83.978 101.346 83.978"/></g><g fill="#5C7985" fill-rule="nonzero" transform="translate(900.000000, 700.000000) scale(-1, 1) rotate(-270.000000) translate(-900.000000, -700.000000) translate(800.000000, 600.000000)"><rect id="Shape" width="200" height="200" x="0" y="0"/></g><g fill-rule="nonzero" transform="translate(900.000000, 500.000000) scale(-1, 1) rotate(-270.000000) translate(-900.000000, -500.000000) translate(800.000000, 400.000000)"><rect id="Shape" width="200" height="200" x="0" y="0" fill="#A3CEC1"/><path id="Shape" fill="#FF7E6F" d="M199.447514,0.552486188 L199.447514,0.552486188 C199.447514,110.704306 110.15182,200 1.98951966e-13,200 L0,200 C-1.34897074e-14,89.8481797 89.2956935,0.552486188 199.447514,0.552486188 Z"/></g><g fill-rule="nonzero" transform="translate(900.000000, 300.000000) rotate(-270.000000) translate(-900.000000, -300.000000) translate(800.000000, 200.000000)"><rect id="Shape" width="200" height="200" x="0" y="0" fill="#A3CEC1"/><path id="Shape" fill="#F5E304" d="M17,0 L183.298343,0 L183.298343,99.7237569 C183.298343,145.645776 146.071191,182.872928 100.149171,182.872928 C54.227152,182.872928 17,145.645776 17,99.7237569 L17,0 Z"/></g><g fill-rule="nonzero" transform="translate(900.000000, 100.000000) scale(-1, 1) rotate(-270.000000) translate(-900.000000, -100.000000) translate(800.000000, 0.000000)"><rect id="Shape" width="200" height="200" x="0" y="0" fill="#C0E1DD"/><circle id="Shape" cx="99.724" cy="99.724" r="15.746" fill="#FF7E6F"/></g><g fill-rule="nonzero" transform="translate(1300.000000, 900.000000) scale(-1, 1) rotate(-270.000000) translate(-1300.000000, -900.000000) translate(1200.000000, 800.000000)"><rect id="Shape" width="200" height="200" x="0" y="0" fill="#C0E1DD"/><circle id="Shape" cx="99.724" cy="99.724" r="15.746" fill="#FF7E6F"/></g><g fill-rule="nonzero" transform="translate(100.000000, 1100.000000) scale(-1, 1) rotate(-270.000000) translate(-100.000000, -1100.000000) translate(0.000000, 1000.000000)"><rect id="Shape" width="200" height="200" x="0" y="0" fill="#C0E1DD"/><circle id="Shape" cx="99.724" cy="99.724" r="15.746" fill="#FF7E6F"/></g><g fill-rule="nonzero" transform="translate(1300.000000, 100.000000) scale(-1, 1) rotate(-270.000000) translate(-1300.000000, -100.000000) translate(1200.000000, 0.000000)"><rect id="Shape" width="200" height="200" x="0" y="0" fill="#C0E1DD"/><path id="Shape" fill="#95C3B4" d="M200,0 L200,0 L200,100 C200,155.228475 155.228475,200 100,200 L0,200 C-1.3527075e-14,89.54305 89.54305,2.02906125e-14 200,0 Z" transform="translate(100.000000, 100.000000) scale(1, -1) translate(-100.000000, -100.000000)"/></g><g fill="#F5E304" fill-rule="nonzero" transform="translate(1300.000000, 500.000000) scale(-1, 1) rotate(-270.000000) translate(-1300.000000, -500.000000) translate(1200.000000, 400.000000)"><rect id="Shape" width="200" height="200" x="0" y="0"/></g><g fill-rule="nonzero" transform="translate(1300.000000, 700.000000) scale(-1, 1) rotate(-270.000000) translate(-1300.000000, -700.000000) translate(1200.000000, 600.000000)"><rect id="Shape" width="200" height="200" x="0" y="0" fill="#A3CEC1"/><path id="Shape" fill="#C0E1DD" d="M200,-7.10542736e-14 L200,-7.10542736e-14 C200,110.45695 110.45695,200 0,200 L0,200 C-1.3527075e-14,89.54305 89.54305,-5.0763661e-14 200,-7.10542736e-14 Z" transform="translate(100.000000, 100.000000) scale(-1, 1) translate(-100.000000, -100.000000)"/></g><g fill-rule="nonzero" transform="translate(500.000000, 100.000000) scale(-1, 1) translate(-500.000000, -100.000000) translate(400.000000, 0.000000)"><rect id="Shape" width="200" height="200" x="0" y="0" fill="#A3CEC1"/><path id="Shape" fill="#C0E1DD" d="M200,-7.10542736e-14 L200,-7.10542736e-14 C200,110.45695 110.45695,200 0,200 L0,200 C-1.3527075e-14,89.54305 89.54305,-5.0763661e-14 200,-7.10542736e-14 Z" transform="translate(100.000000, 100.000000) scale(-1, 1) translate(-100.000000, -100.000000)"/></g><g transform="translate(1100.000000, 300.000000) scale(-1, 1) rotate(-270.000000) translate(-1100.000000, -300.000000) translate(1000.000000, 200.000000)"><mask id="mask-10" fill="#fff"><use xlink:href="#path-9"/></mask><use id="Shape" fill="#95C3B4" fill-rule="nonzero" xlink:href="#path-9"/><circle id="Shape" cx="199.724" cy="200.276" r="51.105" fill="#5C7985" fill-rule="nonzero" mask="url(#mask-10)"/><circle id="Shape" cx="-.276" cy="-.276" r="51.105" fill="#5C7985" fill-rule="nonzero" mask="url(#mask-10)"/></g><g fill-rule="nonzero" transform="translate(1100.000000, 100.000000) scale(-1, 1) rotate(-180.000000) translate(-1100.000000, -100.000000) translate(1000.000000, 0.000000)"><polygon id="Shape" fill="#FFF" points="0 0 200 0 200 200 0 200" transform="translate(100.000000, 100.000000) scale(-1, -1) rotate(-90.000000) translate(-100.000000, -100.000000)"/><path id="Shape" fill="#FF7E6F" d="M55,0 L200,0 C200,110.45695 110.45695,200 0,200 L0,200 L0,55 C1.04909091e-14,24.6243388 24.6243388,5.57991845e-15 55,0 Z" transform="translate(100.000000, 100.000000) scale(-1, -1) rotate(-90.000000) translate(-100.000000, -100.000000)"/></g><g fill-rule="nonzero" transform="translate(300.000000, 900.000000) rotate(-90.000000) translate(-300.000000, -900.000000) translate(200.000000, 800.000000)"><rect id="Shape" width="200" height="200" x="0" y="0" fill="#FFF"/><path id="Shape" fill="#5C7985" d="M199.79558,23 L199.79558,23 L199.79558,144.79558 C199.79558,175.171241 175.171241,199.79558 144.79558,199.79558 L23,199.79558 C23,102.154077 102.154077,23 199.79558,23 Z"/><circle id="Shape" cx="166.022" cy="169.254" r="15.746" fill="#FF7E6F"/></g><g fill-rule="nonzero" transform="translate(400.000000, 200.000000)"><rect id="Shape" width="200" height="200" x="0" y="0" fill="#C0E1DD"/><circle id="Shape" cx="100.276" cy="99.171" r="57.735" fill="#FFF"/><polygon id="Shape" fill="#5C7985" points="101.346 98.781 116.022 98.781 116.022 100.381 101.346 100.381 101.346 114.917 99.495 114.917 99.495 100.381 85.083 100.381 85.083 98.781 99.495 98.781 99.495 83.978 101.346 83.978"/></g><g fill-rule="nonzero" transform="translate(1000.000000, 1000.000000)"><rect id="Shape" width="200" height="200" x="0" y="0" fill="#C0E1DD"/><circle id="Shape" cx="100.276" cy="99.171" r="57.735" fill="#FFF"/><polygon id="Shape" fill="#5C7985" points="101.346 98.781 116.022 98.781 116.022 100.381 101.346 100.381 101.346 114.917 99.495 114.917 99.495 100.381 85.083 100.381 85.083 98.781 99.495 98.781 99.495 83.978 101.346 83.978"/></g><g fill="#5C7985" fill-rule="nonzero" transform="translate(600.000000, 0.000000)"><rect id="Shape" width="200" height="200" x="0" y="0"/></g><g fill-rule="nonzero" transform="translate(900.000000, 1100.000000) rotate(-270.000000) translate(-900.000000, -1100.000000) translate(800.000000, 1000.000000)"><rect id="Shape" width="200" height="200" x="0" y="0" fill="#A3CEC1"/><path id="Shape" fill="#FF7E6F" d="M199.447514,0.552486188 L199.447514,0.552486188 C199.447514,110.704306 110.15182,200 1.98951966e-13,200 L0,200 C-1.34897074e-14,89.8481797 89.2956935,0.552486188 199.447514,0.552486188 Z"/></g><g fill-rule="nonzero" transform="translate(200.000000, 0.000000)"><rect id="Shape" width="200" height="200" x="0" y="0" fill="#A3CEC1"/><path id="Shape" fill="#F5E304" d="M17,0 L183.298343,0 L183.298343,99.7237569 C183.298343,145.645776 146.071191,182.872928 100.149171,182.872928 C54.227152,182.872928 17,145.645776 17,99.7237569 L17,0 Z"/></g><g fill-rule="nonzero"><rect id="Shape" width="200" height="200" x="0" y="0" fill="#C0E1DD"/><circle id="Shape" cx="99.724" cy="99.724" r="15.746" fill="#FF7E6F"/></g><g fill-rule="nonzero" transform="translate(600.000000, 200.000000)"><rect id="Shape" width="200" height="200" x="0" y="0" fill="#8BAFBB"/><circle id="Shape" cx="99.724" cy="99.724" r="15.746" fill="#F5E304"/></g><g fill-rule="nonzero" transform="translate(100.000000, 500.000000) rotate(-270.000000) translate(-100.000000, -500.000000) translate(0.000000, 400.000000)"><rect id="Shape" width="200" height="200" x="0" y="0" fill="#C0E1DD"/><path id="Shape" fill="#95C3B4" d="M200,0 L200,0 L200,100 C200,155.228475 155.228475,200 100,200 L0,200 C-1.3527075e-14,89.54305 89.54305,2.02906125e-14 200,0 Z" transform="translate(100.000000, 100.000000) scale(1, -1) translate(-100.000000, -100.000000)"/></g><g fill="#F5E304" fill-rule="nonzero" transform="translate(200.000000, 200.000000)"><rect id="Shape" width="200" height="200" x="0" y="0"/></g><g fill="#F5E304" fill-rule="nonzero" transform="translate(1400.000000, 200.000000)"><rect id="Shape" width="200" height="200" x="0" y="0"/></g><g fill-rule="nonzero" transform="translate(600.000000, 400.000000)"><rect id="Shape" width="200" height="200" x="0" y="0" fill="#A3CEC1"/><path id="Shape" fill="#C0E1DD" d="M200,-7.10542736e-14 L200,-7.10542736e-14 C200,110.45695 110.45695,200 0,200 L0,200 C-1.3527075e-14,89.54305 89.54305,-5.0763661e-14 200,-7.10542736e-14 Z" transform="translate(100.000000, 100.000000) scale(-1, 1) translate(-100.000000, -100.000000)"/></g><g transform="translate(200.000000, 400.000000)"><mask id="mask-12" fill="#fff"><use xlink:href="#path-11"/></mask><use id="Shape" fill="#95C3B4" fill-rule="nonzero" xlink:href="#path-11"/><circle id="Shape" cx="199.724" cy="200.276" r="51.105" fill="#5C7985" fill-rule="nonzero" mask="url(#mask-12)"/><circle id="Shape" cx="-.276" cy="-.276" r="51.105" fill="#5C7985" fill-rule="nonzero" mask="url(#mask-12)"/></g><g transform="translate(800.000000, 800.000000)"><mask id="mask-14" fill="#fff"><use xlink:href="#path-13"/></mask><use id="Shape" fill="#FF7E6F" fill-rule="nonzero" xlink:href="#path-13"/><circle id="Shape" cx="199.724" cy="200.276" r="51.105" fill="#FFF" fill-rule="nonzero" mask="url(#mask-14)"/><circle id="Shape" cx="-.276" cy="-.276" r="51.105" fill="#FFF" fill-rule="nonzero" mask="url(#mask-14)"/></g><g fill-rule="nonzero" transform="translate(0.000000, 200.000000)"><polygon id="Shape" fill="#FFF" points="0 0 200 0 200 200 0 200" transform="translate(100.000000, 100.000000) scale(-1, -1) rotate(-90.000000) translate(-100.000000, -100.000000)"/><path id="Shape" fill="#FF7E6F" d="M55,0 L200,0 C200,110.45695 110.45695,200 0,200 L0,200 L0,55 C1.04909091e-14,24.6243388 24.6243388,5.57991845e-15 55,0 Z" transform="translate(100.000000, 100.000000) scale(-1, -1) rotate(-90.000000) translate(-100.000000, -100.000000)"/></g><g transform="translate(1400.000000, 800.000000)"><rect id="Shape" width="200" height="200" x="0" y="0" fill="#8BAFBB" fill-rule="nonzero"/><ellipse id="Shape" cx="100.044" cy="98.018" fill="#5C7985" fill-rule="nonzero" rx="82.044" ry="81.018"/><mask id="mask-16" fill="#fff"><use xlink:href="#path-15"/></mask><use id="Shape" fill="#F5E304" fill-rule="nonzero" xlink:href="#path-15"/><ellipse id="Shape" cx="99.951" cy="99.676" fill="#FFF" fill-rule="nonzero" mask="url(#mask-16)" rx="81.951" ry="80.937"/></g><g fill-rule="nonzero" transform="translate(1500.000000, 500.000000) scale(1, -1) translate(-1500.000000, -500.000000) translate(1400.000000, 400.000000)"><rect id="Shape" width="200" height="200" x="0" y="0" fill="#C0E1DD"/><circle id="Shape" cx="100.276" cy="99.171" r="57.735" fill="#FFF"/><polygon id="Shape" fill="#5C7985" points="101.346 98.781 116.022 98.781 116.022 100.381 101.346 100.381 101.346 114.917 99.495 114.917 99.495 100.381 85.083 100.381 85.083 98.781 99.495 98.781 99.495 83.978 101.346 83.978"/></g><g fill-rule="nonzero" transform="translate(1500.000000, 100.000000) scale(-1, 1) translate(-1500.000000, -100.000000) translate(1400.000000, 0.000000)"><rect id="Shape" width="200" height="200" x="0" y="0" fill="#A3CEC1"/><path id="Shape" fill="#C0E1DD" d="M200,-7.10542736e-14 L200,-7.10542736e-14 C200,110.45695 110.45695,200 0,200 L0,200 C-1.3527075e-14,89.54305 89.54305,-5.0763661e-14 200,-7.10542736e-14 Z" transform="translate(100.000000, 100.000000) scale(-1, 1) translate(-100.000000, -100.000000)"/></g><g fill="#5C7985" fill-rule="nonzero" transform="translate(1500.000000, 1100.000000) scale(1, -1) translate(-1500.000000, -1100.000000) translate(1400.000000, 1000.000000)"><rect id="Shape" width="200" height="200" x="0" y="0"/></g><g fill-rule="nonzero" transform="translate(1500.000000, 700.000000) scale(1, -1) translate(-1500.000000, -700.000000) translate(1400.000000, 600.000000)"><rect id="Shape" width="200" height="200" x="0" y="0" fill="#A3CEC1"/><path id="Shape" fill="#C0E1DD" d="M200,-7.10542736e-14 L200,-7.10542736e-14 C200,110.45695 110.45695,200 0,200 L0,200 C-1.3527075e-14,89.54305 89.54305,-5.0763661e-14 200,-7.10542736e-14 Z" transform="translate(100.000000, 100.000000) scale(-1, 1) translate(-100.000000, -100.000000)"/></g></g></g></g></svg>