<svg xmlns="http://www.w3.org/2000/svg" xmlns:xlink="http://www.w3.org/1999/xlink" width="1600" height="1200" version="1.1" viewBox="0 0 1600 1200"><title>Waiau</title><desc>Created with Sketch.</desc><defs><rect id="path-1" width="1600" height="1200" x=".702" y="0"/></defs><g id="Patterns" fill="none" fill-rule="evenodd" stroke="none" stroke-width="1"><g id="Waiau"><g transform="translate(-0.701964, -0.000000)"><mask id="mask-2" fill="#fff"><use xlink:href="#path-1"/></mask><use id="Background" fill="#DCDCDB" xlink:href="#path-1"/><polygon id="Shape" fill="#EAE8E4" points="1600.702 0 1600.702 1200 1010.639 1200 356.702 396.07 865.952 0" mask="url(#mask-2)"/><circle id="Shape" cx="450.702" cy="414" r="249" fill="#BFCBBA" mask="url(#mask-2)"/><rect id="Shape" width="588.232" height="80.155" x="933.563" y="261.805" fill="#DC4618" mask="url(#mask-2)" transform="translate(1227.678960, 301.882761) rotate(-30.085651) translate(-1227.678960, -301.882761)"/><polygon id="Shape" fill="#DC4618" points="913.115 777.006 589.162 735.763 576.011 793.866 904.538 839.721" mask="url(#mask-2)" transform="translate(744.563015, 787.742328) rotate(43.656465) translate(-744.563015, -787.742328)"/><polygon id="Shape" fill="#EAE8E4" points="429.116 824.576 135.632 892.222 143.52 930.566 432.87 881" mask="url(#mask-2)" transform="translate(284.251165, 877.571067) rotate(156.828478) translate(-284.251165, -877.571067)"/><rect id="Shape" width="162.706" height="25.211" x="566.189" y="890.947" fill="#60BEBF" mask="url(#mask-2)" transform="translate(647.542236, 903.552877) rotate(56.096901) translate(-647.542236, -903.552877)"/><polygon id="Shape" fill="#3A8EAA" points="835.595 618.57 686.965 629.764 682.788 676.051 838.796 672.993" mask="url(#mask-2)" transform="translate(760.792137, 647.309926) rotate(54.914350) translate(-760.792137, -647.309926)"/><polygon id="Shape" fill="#2A3E4C" points="1627.15 141.563 430.449 176.657 436.184 256.035 1640.164 275.54" mask="url(#mask-2)" transform="translate(1035.306066, 208.551840) rotate(-33.292583) translate(-1035.306066, -208.551840)"/><polygon id="Shape" fill="#E5AB17" points="562.582 492.147 949.497 494.637 949.497 545.003 567.008 542.886" mask="url(#mask-2)" transform="translate(756.039694, 518.575098) rotate(-29.041580) translate(-756.039694, -518.575098)"/><rect id="Shape" width="380.316" height="50.366" x="86.326" y="979.433" fill="#EAE8E4" mask="url(#mask-2)" transform="translate(276.484042, 1004.616471) rotate(-40.041580) translate(-276.484042, -1004.616471)"/><polygon id="Shape" fill="#E5AB17" points="311.263 851.618 466.294 861.506 466.294 895.815 311.263 885.927" mask="url(#mask-2)" transform="translate(388.779994, 873.714996) rotate(-42.260842) translate(-388.779994, -873.714996)"/><polygon id="Shape" fill="#28203D" fill-rule="nonzero" points="1099.889 364.266 1483.833 352.996 1483.833 381.423 1099.889 392.693" mask="url(#mask-2)" transform="translate(1291.860227, 372.844597) rotate(-27.085663) translate(-1291.860227, -372.844597)"/><polygon id="Shape" fill="#BFCBBA" points="1125.795 140.993 1505.618 140.993 1505.618 169.42 1125.795 169.42" mask="url(#mask-2)" transform="translate(1315.706493, 155.206637) rotate(-31.085663) translate(-1315.706493, -155.206637)"/><rect id="Shape" width="379.905" height="7.185" x="1044.65" y="444.161" fill="#849C9B" mask="url(#mask-2)" transform="translate(1234.602604, 447.753853) rotate(-27.085663) translate(-1234.602604, -447.753853)"/><rect id="Shape" width="947.973" height="21.387" x="52" y="589.122" fill="#28203D" fill-rule="nonzero" mask="url(#mask-2)" transform="translate(525.986330, 599.815737) rotate(51.542669) translate(-525.986330, -599.815737)"/><polygon id="Shape" fill="#849C9B" points="708.682 497.343 86.799 535.648 83.024 609.603 710.043 582.839" mask="url(#mask-2)" transform="translate(396.533266, 553.473203) rotate(54.016160) translate(-396.533266, -553.473203)"/><ellipse id="Shape" cx="992.985" cy="722.127" fill="#849C9B" mask="url(#mask-2)" rx="39.258" ry="39.047" transform="translate(992.985169, 722.126961) rotate(-13.488436) translate(-992.985169, -722.126961)"/><ellipse id="Shape" cx="171.853" cy="684.87" fill="#EAE8E4" mask="url(#mask-2)" rx="70.699" ry="70.319" transform="translate(171.853098, 684.869758) rotate(-13.488436) translate(-171.853098, -684.869758)"/><ellipse id="Shape" cx="486.632" cy="422.923" fill="#DC4618" mask="url(#mask-2)" rx="30.758" ry="30.593" transform="translate(486.631923, 422.923423) rotate(-13.488436) translate(-486.631923, -422.923423)"/><ellipse id="Shape" cx="319.603" cy="722.253" fill="#BFCBBA" mask="url(#mask-2)" rx="30.609" ry="30.444" transform="translate(319.603098, 722.253343) rotate(-13.488436) translate(-319.603098, -722.253343)"/><polygon id="Shape" fill="#28203D" fill-rule="nonzero" points="508.829 485.163 788.636 291.961 786.264 288.526 506.457 481.728" mask="url(#mask-2)"/><polygon id="Shape" fill="#28203D" fill-rule="nonzero" points="1076.039 911.576 1220.754 1081.242 1226.08 1076.699 1081.365 907.033" mask="url(#mask-2)"/><polygon id="Shape" fill="#28203D" fill-rule="nonzero" points="187.897 55.805 286.524 265.401 290.301 263.624 191.674 54.028" mask="url(#mask-2)" transform="translate(239.098950, 159.714229) rotate(-13.488436) translate(-239.098950, -159.714229)"/><polygon id="Shape" fill="#28203D" fill-rule="nonzero" points="262.818 945.804 78.873 1094.538 81.498 1097.784 265.443 949.05" mask="url(#mask-2)"/><path id="Shape" fill="#DC4618" d="M1206.23953,762.537566 L1206.23953,703.40228 L1210.83662,703.40228 L1210.83662,762.537566 L1269.97191,762.537566 L1269.97191,767.134656 L1210.83662,767.134656 L1210.83662,826.269942 L1206.23953,826.269942 L1206.23953,767.134656 L1147.10424,767.134656 L1147.10424,762.537566 L1206.23953,762.537566 Z" mask="url(#mask-2)" transform="translate(1208.538075, 764.836111) rotate(-41.000000) translate(-1208.538075, -764.836111)"/><path id="Shape" fill="#DC4618" d="M171.149285,679.447322 L171.149285,648.995048 L173.5166,648.995048 L173.5166,679.447322 L203.968874,679.447322 L203.968874,681.814636 L173.5166,681.814636 L173.5166,712.266911 L171.149285,712.266911 L171.149285,681.814636 L140.697011,681.814636 L140.697011,679.447322 L171.149285,679.447322 Z" mask="url(#mask-2)" transform="translate(172.332943, 680.630979) rotate(-41.000000) translate(-172.332943, -680.630979)"/></g></g></g></svg>