<?xml version="1.0" standalone="no"?>
<!DOCTYPE svg PUBLIC "-//W3C//DTD SVG 20010904//EN"
 "http://www.w3.org/TR/2001/REC-SVG-20010904/DTD/svg10.dtd">
<svg version="1.0" xmlns="http://www.w3.org/2000/svg"
 width="929.000000pt" height="549.000000pt" viewBox="0 0 929.000000 549.000000"
 preserveAspectRatio="xMidYMid meet">
<metadata>
Created by potrace 1.16, written by Peter Selinger 2001-2019
</metadata>
<g transform="translate(0.000000,549.000000) scale(0.100000,-0.100000)"
fill="#000000" stroke="none">
<path d="M7514 4158 c-74 -78 -103 -119 -195 -283 -73 -132 -196 -437 -178
-443 13 -5 11 -23 -2 -19 -6 1 -15 -8 -20 -20 -6 -16 -5 -23 4 -23 7 0 4 -5
-5 -11 -10 -5 -18 -19 -18 -29 0 -11 -9 -43 -20 -72 -23 -62 -25 -72 -7 -62 6
4 5 -1 -4 -12 -23 -27 -41 -84 -27 -84 6 0 4 -8 -5 -18 -19 -21 -70 -217 -65
-247 3 -11 -1 -26 -8 -32 -6 -7 -15 -36 -19 -65 -8 -69 -24 -142 -42 -198 -8
-25 -16 -83 -18 -130 -3 -47 -6 -103 -8 -124 -6 -52 18 -151 48 -203 44 -75
124 -123 201 -123 55 1 203 88 188 111 -3 5 -2 9 3 8 20 -3 30 2 30 16 0 8 -5
15 -11 15 -6 0 8 16 31 36 24 20 40 40 37 45 -3 5 2 6 11 3 13 -5 9 -13 -21
-40 -20 -19 -34 -37 -31 -41 4 -3 48 36 99 88 51 51 75 77 53 57 -33 -30 -46
-36 -71 -32 -22 3 -35 -1 -49 -16 -10 -11 -23 -20 -29 -20 -5 0 14 23 43 50
29 28 58 50 64 50 6 0 8 3 4 6 -3 4 13 22 36 40 23 19 58 49 77 68 19 19 48
39 63 45 16 6 26 15 23 19 -3 5 2 19 11 31 11 16 18 19 23 11 5 -9 9 -9 14 -1
4 6 2 11 -5 11 -8 0 -8 4 1 15 24 29 -5 14 -45 -22 -103 -95 -380 -335 -437
-378 -67 -51 -148 -93 -188 -97 -18 -2 -28 5 -39 27 -9 17 -19 32 -23 33 -13
6 -8 214 6 275 11 47 21 65 55 93 23 20 54 55 70 77 33 50 153 267 155 283 1
7 7 18 12 25 13 17 167 365 223 504 181 447 233 684 177 793 -18 35 -47 57
-86 67 -22 5 -35 -3 -86 -57z m106 -52 c0 -55 -40 -222 -90 -379 -70 -217
-347 -828 -464 -1022 -39 -65 -44 -56 -22 34 8 31 18 86 21 124 4 37 11 70 16
72 4 3 13 31 19 63 6 31 23 92 37 134 14 43 23 85 19 93 -3 8 -1 15 4 15 11 0
33 67 26 79 -4 5 3 24 13 43 11 18 40 87 64 153 24 66 56 145 70 176 14 31 23
60 20 63 -4 3 -1 6 5 6 7 0 12 8 12 18 0 25 35 121 49 135 6 6 11 18 11 27 0
9 11 27 25 40 19 18 22 26 13 32 -9 5 -8 8 5 8 9 0 16 4 15 8 -5 14 110 124
122 117 5 -3 10 -21 10 -39z m-147 -683 c3 -5 0 -19 -6 -33 -5 -14 -11 -30
-12 -36 -6 -26 -118 -260 -129 -269 -7 -5 -11 -15 -9 -22 2 -6 -9 -23 -24 -37
-18 -17 -23 -26 -13 -26 8 0 4 -6 -9 -13 -31 -15 -39 -37 -14 -38 14 0 13 -2
-5 -10 -13 -5 -26 -18 -29 -28 -4 -16 -33 -39 -33 -27 0 14 114 216 122 216 5
0 7 7 4 16 -6 15 60 155 77 162 4 2 4 8 1 13 -3 6 -1 15 4 22 5 7 13 27 17 45
3 17 11 32 16 32 5 0 9 9 9 20 0 19 24 28 33 13z"/>
<path d="M3593 4024 c-38 -19 -110 -113 -179 -234 -26 -47 -52 -86 -56 -88 -4
-2 -8 -11 -8 -21 0 -9 -7 -27 -16 -39 -8 -12 -13 -22 -10 -22 7 0 -32 -91 -47
-109 -7 -8 -11 -22 -9 -33 2 -10 -6 -32 -18 -49 -12 -16 -23 -45 -25 -63 -2
-18 -12 -48 -24 -66 -16 -27 -18 -37 -8 -49 10 -12 9 -13 -2 -7 -10 7 -12 3
-6 -13 4 -12 2 -21 -4 -21 -6 0 -8 -6 -5 -13 3 -8 0 -27 -7 -43 -6 -16 -13
-42 -16 -59 -2 -16 -11 -40 -19 -52 -8 -13 -12 -23 -8 -23 4 0 1 -6 -5 -14 -6
-7 -13 -38 -15 -69 -2 -31 -7 -60 -11 -66 -3 -6 -3 -11 1 -11 3 0 -1 -11 -10
-24 -10 -17 -12 -27 -5 -31 7 -5 5 -13 -5 -23 -8 -10 -26 -84 -42 -182 -21
-133 -31 -170 -49 -190 -12 -14 -28 -35 -34 -47 -10 -20 -9 -23 15 -29 26 -7
26 -8 20 -68 -4 -33 -13 -108 -21 -166 -24 -172 -45 -381 -45 -437 0 -49 1
-52 30 -58 37 -8 46 -3 69 43 21 43 24 61 51 323 11 108 24 207 28 219 8 22 9
22 31 -13 37 -61 122 -72 269 -37 118 28 406 177 484 250 39 36 6 20 -135 -67
-65 -40 -195 -103 -213 -103 -7 0 -16 -4 -19 -10 -10 -17 -21 -11 -21 10 0 12
5 19 12 16 7 -3 15 1 17 8 4 9 -3 12 -21 9 -23 -3 -21 -1 8 11 19 8 44 15 56
15 21 1 116 47 314 154 96 51 182 119 168 132 -8 9 -38 -6 -32 -16 3 -5 -5
-13 -18 -18 -13 -5 -66 -33 -118 -63 -178 -101 -372 -186 -494 -219 -119 -32
-241 -20 -241 23 0 18 214 173 332 240 56 32 74 48 78 70 8 34 0 48 -26 48
-35 0 -81 -25 -238 -129 -85 -56 -157 -99 -160 -95 -3 3 15 25 39 48 48 47
133 148 174 209 14 21 31 43 36 50 23 26 113 174 130 213 10 23 23 45 29 48 6
4 11 18 11 31 0 12 11 43 25 66 14 24 25 53 25 64 0 11 7 33 15 49 8 15 13 32
10 37 -3 4 8 33 25 63 29 51 76 213 85 294 2 20 9 64 15 97 17 87 18 263 2
302 -15 34 -63 63 -104 63 -12 0 -38 -8 -55 -16z m79 -101 c11 -129 -20 -295
-104 -553 -64 -196 -140 -367 -231 -521 -55 -95 -162 -239 -176 -239 -15 0 49
346 89 484 92 316 124 404 196 548 41 81 90 172 109 203 40 61 93 125 105 125
4 0 10 -21 12 -47z m-124 -700 c-47 -137 -140 -337 -199 -432 -47 -74 -155
-216 -188 -245 -41 -37 -20 2 37 71 145 173 241 353 371 696 6 15 13 27 16 27
2 0 -14 -53 -37 -117z"/>
<path d="M1631 2746 c-183 -183 -274 -281 -280 -301 -18 -69 -8 -83 283 -374
l276 -276 50 50 50 49 -250 251 c-137 138 -250 257 -250 265 0 8 112 127 250
265 l249 250 -53 47 -53 46 -272 -272z"/>
<path d="M2207 2712 l-47 -47 120 -120 c66 -66 120 -126 120 -135 0 -8 -54
-69 -120 -135 l-120 -121 50 -49 50 -49 141 139 c77 77 147 153 156 169 32 61
17 87 -144 248 -81 81 -150 148 -153 148 -3 0 -27 -21 -53 -48z"/>
<path d="M5673 2719 c-28 -14 -64 -49 -113 -112 -40 -51 -77 -102 -83 -114 -6
-13 -14 -23 -19 -23 -4 0 -8 -6 -8 -14 0 -7 -9 -24 -19 -38 -23 -29 -124 -255
-171 -383 -19 -49 -38 -94 -43 -100 -13 -14 2 53 19 87 17 33 19 61 3 38 -12
-17 -10 6 16 245 22 204 20 241 -10 270 -14 15 -36 25 -54 25 l-29 0 -5 -122
c-2 -68 -10 -166 -16 -218 -6 -52 -21 -178 -32 -280 -11 -102 -28 -246 -39
-320 -11 -74 -25 -169 -30 -210 -6 -41 -28 -144 -50 -230 -51 -202 -69 -311
-71 -418 -2 -96 11 -138 55 -185 25 -27 63 -33 59 -10 -1 6 2 37 8 69 5 33 17
120 25 194 9 74 17 144 18 155 2 11 8 45 14 75 6 30 14 80 17 110 16 133 81
374 191 708 107 326 308 682 416 738 41 21 50 7 45 -74 -7 -91 -53 -179 -143
-271 -63 -64 -75 -73 -89 -61 -9 8 -13 20 -9 33 4 13 2 17 -5 13 -6 -4 -11
-24 -11 -45 0 -44 49 -121 78 -121 39 0 141 92 178 160 14 25 36 60 49 78 31
43 55 126 55 191 0 58 -31 127 -61 136 -10 4 -19 10 -19 15 0 7 -52 30 -69 30
-3 0 -25 -9 -48 -21z"/>
<path d="M4239 2582 c-78 -50 -216 -264 -254 -396 -16 -54 -16 -58 2 -84 10
-15 22 -36 28 -47 15 -29 82 -32 133 -6 22 11 82 59 133 107 52 47 110 97 131
110 20 13 39 28 43 34 17 28 25 1 25 -89 0 -89 2 -100 23 -123 14 -15 40 -27
65 -32 35 -5 52 -1 100 23 98 49 234 146 297 211 55 58 51 72 -5 18 -32 -30
-100 -81 -100 -74 0 3 21 25 48 48 80 72 164 159 158 165 -3 3 1 12 9 20 8 8
15 24 15 35 0 16 -27 -5 -113 -89 -63 -61 -147 -133 -187 -159 -77 -50 -186
-93 -234 -94 -25 0 -28 3 -22 23 3 12 11 63 18 113 11 83 10 94 -6 119 -16 24
-22 27 -57 21 -37 -6 -39 -5 -29 13 15 29 12 78 -6 106 -8 13 -33 30 -55 39
-60 24 -108 20 -160 -12z m143 -133 l3 -52 -70 -67 c-108 -104 -215 -190 -237
-190 -12 0 67 155 109 214 20 27 49 61 65 75 28 25 105 70 120 71 3 0 8 -23
10 -51z"/>
<path d="M6128 2588 c-31 -26 -57 -76 -93 -178 -48 -139 -55 -213 -26 -274 34
-70 76 -91 181 -91 97 0 160 23 220 79 19 18 57 48 83 67 93 66 106 77 100 83
-4 3 2 6 13 6 13 0 20 7 21 20 2 25 -2 25 -35 1 -15 -10 -38 -24 -52 -30 l-25
-12 25 20 c34 27 105 66 97 54 -4 -6 0 -14 9 -17 22 -9 24 -8 24 9 0 8 7 15
17 15 9 0 13 3 10 7 -4 3 1 12 11 20 16 12 15 13 -3 6 -32 -11 -1 22 35 37 17
7 30 17 30 22 0 11 6 14 -157 -89 -124 -78 -178 -106 -123 -63 14 11 20 20 13
20 -7 0 -25 -11 -40 -25 -22 -20 -24 -24 -8 -19 20 6 20 5 1 -10 -11 -9 -32
-16 -48 -16 -18 0 -28 -5 -28 -15 0 -8 -5 -15 -11 -15 -6 0 -51 -16 -99 -35
-48 -19 -109 -36 -136 -37 -46 -3 -49 -1 -52 23 -7 64 104 369 134 369 18 0
17 4 -1 39 -21 41 -57 53 -87 29z"/>
</g>
</svg>
